<svg width="991" height="626" viewBox="0 0 991 626" fill="none" xmlns="http://www.w3.org/2000/svg">
<path d="M208.737 306.773C208.737 308.853 208.577 310.943 208.267 312.993C207.957 315.053 207.487 317.103 206.867 319.093C206.257 321.083 205.477 323.043 204.577 324.933C203.667 326.813 202.597 328.663 201.417 330.403C200.237 332.153 198.907 333.833 197.477 335.393C196.047 336.963 194.477 338.453 192.827 339.803C191.167 341.163 189.397 342.423 187.557 343.543C185.717 344.663 183.777 345.673 181.787 346.533C179.797 347.393 177.717 348.123 175.617 348.713C173.517 349.293 171.357 349.743 169.187 350.033C167.027 350.333 164.817 350.483 162.627 350.483C160.437 350.483 158.227 350.333 156.067 350.033C153.897 349.743 151.737 349.293 149.637 348.713C147.537 348.123 145.467 347.393 143.477 346.533C141.487 345.673 139.537 344.663 137.697 343.543C135.857 342.423 134.087 341.163 132.427 339.803C130.777 338.453 129.217 336.963 127.777 335.393C126.347 333.833 125.017 332.153 123.837 330.403C122.657 328.663 121.597 326.813 120.687 324.933C119.777 323.043 118.997 321.083 118.387 319.093C117.767 317.103 117.297 315.053 116.987 312.993C116.677 310.943 116.517 308.853 116.517 306.773C116.517 304.703 116.677 302.613 116.987 300.553C117.297 298.503 117.767 296.453 118.387 294.463C118.997 292.473 119.777 290.503 120.687 288.623C121.597 286.733 122.657 284.893 123.837 283.153C125.017 281.403 126.347 279.723 127.777 278.153C129.217 276.593 130.777 275.103 132.427 273.743C134.087 272.393 135.857 271.133 137.697 270.013C139.537 268.893 141.487 267.883 143.477 267.023C145.467 266.163 147.537 265.423 149.637 264.843C151.737 264.263 153.897 263.813 156.067 263.513C158.227 263.223 160.437 263.073 162.627 263.073C164.817 263.073 167.027 263.223 169.187 263.513C171.357 263.813 173.517 264.263 175.617 264.843C177.717 265.423 179.797 266.163 181.787 267.023C183.777 267.883 185.717 268.893 187.557 270.013C189.397 271.133 191.167 272.393 192.827 273.743C194.477 275.103 196.047 276.593 197.477 278.153C198.907 279.723 200.237 281.403 201.417 283.153C202.597 284.893 203.667 286.733 204.577 288.623C205.477 290.503 206.257 292.473 206.867 294.463C207.487 296.453 207.957 298.503 208.267 300.553C208.577 302.613 208.657 305.743 208.737 306.773ZM208.737 306.773C208.817 307.813 208.817 305.743 208.737 306.773Z" stroke="white" stroke-width="4" stroke-linecap="round"/>
<path d="M431.076 134.281C431.076 136.361 430.915 138.451 430.605 140.501C430.295 142.561 429.825 144.611 429.205 146.601C428.595 148.591 427.815 150.551 426.915 152.441C426.005 154.321 424.936 156.171 423.756 157.911C422.576 159.661 421.245 161.341 419.815 162.901C418.385 164.471 416.815 165.961 415.165 167.311C413.505 168.671 411.736 169.931 409.896 171.051C408.056 172.171 406.115 173.181 404.125 174.041C402.135 174.901 400.055 175.631 397.955 176.221C395.855 176.801 393.695 177.251 391.525 177.541C389.365 177.841 387.155 177.991 384.965 177.991C382.775 177.991 380.565 177.841 378.405 177.541C376.235 177.251 374.075 176.801 371.975 176.221C369.875 175.631 367.805 174.901 365.815 174.041C363.825 173.181 361.875 172.171 360.035 171.051C358.195 169.931 356.425 168.671 354.765 167.311C353.115 165.961 351.555 164.471 350.115 162.901C348.685 161.341 347.355 159.661 346.175 157.911C344.995 156.171 343.935 154.321 343.025 152.441C342.115 150.551 341.335 148.591 340.725 146.601C340.105 144.611 339.635 142.561 339.325 140.501C339.015 138.451 338.855 136.361 338.855 134.281C338.855 132.211 339.015 130.121 339.325 128.061C339.635 126.011 340.105 123.961 340.725 121.971C341.335 119.981 342.115 118.011 343.025 116.131C343.935 114.241 344.995 112.401 346.175 110.661C347.355 108.911 348.685 107.231 350.115 105.661C351.555 104.101 353.115 102.611 354.765 101.251C356.425 99.9011 358.195 98.6411 360.035 97.5211C361.875 96.4011 363.825 95.3911 365.815 94.5311C367.805 93.6711 369.875 92.9311 371.975 92.3511C374.075 91.7711 376.235 91.3211 378.405 91.0211C380.565 90.7311 382.775 90.5811 384.965 90.5811C387.155 90.5811 389.365 90.7311 391.525 91.0211C393.695 91.3211 395.855 91.7711 397.955 92.3511C400.055 92.9311 402.135 93.6711 404.125 94.5311C406.115 95.3911 408.056 96.4011 409.896 97.5211C411.736 98.6411 413.505 99.9011 415.165 101.251C416.815 102.611 418.385 104.101 419.815 105.661C421.245 107.231 422.576 108.911 423.756 110.661C424.936 112.401 426.005 114.241 426.915 116.131C427.815 118.011 428.595 119.981 429.205 121.971C429.825 123.961 430.295 126.011 430.605 128.061C430.915 130.121 430.996 133.251 431.076 134.281ZM431.076 134.281C431.156 135.321 431.156 133.251 431.076 134.281Z" stroke="white" stroke-width="4" stroke-linecap="round"/>
<path d="M648.977 298.904C648.977 300.984 648.817 303.074 648.507 305.124C648.197 307.184 647.727 309.234 647.107 311.224C646.497 313.214 645.717 315.174 644.817 317.064C643.907 318.944 642.837 320.794 641.657 322.534C640.477 324.284 639.147 325.964 637.717 327.524C636.287 329.094 634.717 330.584 633.067 331.934C631.407 333.294 629.637 334.554 627.797 335.674C625.957 336.794 624.017 337.804 622.027 338.664C620.037 339.524 617.957 340.254 615.857 340.844C613.757 341.424 611.597 341.874 609.427 342.164C607.267 342.464 605.057 342.614 602.867 342.614C600.677 342.614 598.467 342.464 596.307 342.164C594.137 341.874 591.977 341.424 589.877 340.844C587.777 340.254 585.707 339.524 583.717 338.664C581.727 337.804 579.777 336.794 577.937 335.674C576.097 334.554 574.327 333.294 572.667 331.934C571.017 330.584 569.457 329.094 568.017 327.524C566.587 325.964 565.257 324.284 564.077 322.534C562.897 320.794 561.837 318.944 560.927 317.064C560.017 315.174 559.237 313.214 558.627 311.224C558.007 309.234 557.537 307.184 557.227 305.124C556.917 303.074 556.757 300.984 556.757 298.904C556.757 296.834 556.917 294.744 557.227 292.684C557.537 290.634 558.007 288.584 558.627 286.594C559.237 284.604 560.017 282.634 560.927 280.754C561.837 278.864 562.897 277.024 564.077 275.284C565.257 273.534 566.587 271.854 568.017 270.284C569.457 268.724 571.017 267.234 572.667 265.874C574.327 264.524 576.097 263.264 577.937 262.144C579.777 261.024 581.727 260.014 583.717 259.154C585.707 258.294 587.777 257.554 589.877 256.974C591.977 256.394 594.137 255.944 596.307 255.644C598.467 255.354 600.677 255.204 602.867 255.204C605.057 255.204 607.267 255.354 609.427 255.644C611.597 255.944 613.757 256.394 615.857 256.974C617.957 257.554 620.037 258.294 622.027 259.154C624.017 260.014 625.957 261.024 627.797 262.144C629.637 263.264 631.407 264.524 633.067 265.874C634.717 267.234 636.287 268.724 637.717 270.284C639.147 271.854 640.477 273.534 641.657 275.284C642.837 277.024 643.907 278.864 644.817 280.754C645.717 282.634 646.497 284.604 647.107 286.594C647.727 288.584 648.197 290.634 648.507 292.684C648.817 294.744 648.897 297.874 648.977 298.904ZM648.977 298.904C649.057 299.944 649.057 297.874 648.977 298.904Z" stroke="white" stroke-width="4" stroke-linecap="round"/>
<path d="M708.411 53.7C708.411 55.78 708.251 57.87 707.941 59.92C707.631 61.98 707.161 64.03 706.541 66.02C705.931 68.01 705.151 69.97 704.251 71.86C703.341 73.74 702.271 75.59 701.091 77.33C699.911 79.08 698.581 80.76 697.151 82.32C695.721 83.89 694.151 85.38 692.501 86.73C690.841 88.09 689.071 89.35 687.231 90.47C685.391 91.59 683.451 92.6 681.461 93.46C679.471 94.32 677.391 95.05 675.291 95.64C673.191 96.22 671.031 96.67 668.861 96.96C666.701 97.26 664.491 97.41 662.301 97.41C660.111 97.41 657.901 97.26 655.741 96.96C653.571 96.67 651.411 96.22 649.311 95.64C647.211 95.05 645.141 94.32 643.151 93.46C641.161 92.6 639.211 91.59 637.371 90.47C635.531 89.35 633.761 88.09 632.101 86.73C630.451 85.38 628.891 83.89 627.451 82.32C626.021 80.76 624.691 79.08 623.511 77.33C622.331 75.59 621.271 73.74 620.361 71.86C619.451 69.97 618.671 68.01 618.061 66.02C617.441 64.03 616.971 61.98 616.661 59.92C616.351 57.87 616.191 55.78 616.191 53.7C616.191 51.63 616.351 49.54 616.661 47.48C616.971 45.43 617.441 43.38 618.061 41.39C618.671 39.4 619.451 37.43 620.361 35.55C621.271 33.66 622.331 31.82 623.511 30.08C624.691 28.33 626.021 26.65 627.451 25.08C628.891 23.52 630.451 22.03 632.101 20.67C633.761 19.32 635.531 18.06 637.371 16.94C639.211 15.82 641.161 14.81 643.151 13.95C645.141 13.09 647.211 12.35 649.311 11.77C651.411 11.19 653.571 10.74 655.741 10.44C657.901 10.15 660.111 10 662.301 10C664.491 10 666.701 10.15 668.861 10.44C671.031 10.74 673.191 11.19 675.291 11.77C677.391 12.35 679.471 13.09 681.461 13.95C683.451 14.81 685.391 15.82 687.231 16.94C689.071 18.06 690.841 19.32 692.501 20.67C694.151 22.03 695.721 23.52 697.151 25.08C698.581 26.65 699.911 28.33 701.091 30.08C702.271 31.82 703.341 33.66 704.251 35.55C705.151 37.43 705.931 39.4 706.541 41.39C707.161 43.38 707.631 45.43 707.941 47.48C708.251 49.54 708.331 52.67 708.411 53.7ZM708.411 53.7C708.491 54.74 708.491 52.67 708.411 53.7Z" stroke="white" stroke-width="4" stroke-linecap="round"/>
<path d="M973.567 107.254C973.567 109.334 973.407 111.424 973.097 113.474C972.787 115.534 972.317 117.584 971.697 119.574C971.087 121.564 970.307 123.524 969.407 125.414C968.497 127.294 967.427 129.144 966.247 130.884C965.067 132.634 963.737 134.314 962.307 135.874C960.877 137.444 959.307 138.934 957.657 140.284C955.997 141.644 954.227 142.904 952.387 144.024C950.547 145.144 948.607 146.154 946.617 147.014C944.627 147.874 942.547 148.604 940.447 149.194C938.347 149.774 936.187 150.224 934.017 150.514C931.857 150.814 929.647 150.964 927.457 150.964C925.267 150.964 923.057 150.814 920.897 150.514C918.727 150.224 916.567 149.774 914.467 149.194C912.367 148.604 910.297 147.874 908.307 147.014C906.317 146.154 904.367 145.144 902.527 144.024C900.687 142.904 898.917 141.644 897.257 140.284C895.607 138.934 894.047 137.444 892.607 135.874C891.177 134.314 889.847 132.634 888.667 130.884C887.487 129.144 886.427 127.294 885.517 125.414C884.607 123.524 883.827 121.564 883.217 119.574C882.597 117.584 882.127 115.534 881.817 113.474C881.507 111.424 881.347 109.334 881.347 107.254C881.347 105.184 881.507 103.094 881.817 101.034C882.127 98.9842 882.597 96.9342 883.217 94.9442C883.827 92.9542 884.607 90.9842 885.517 89.1042C886.427 87.2142 887.487 85.3742 888.667 83.6342C889.847 81.8842 891.177 80.2042 892.607 78.6342C894.047 77.0742 895.607 75.5842 897.257 74.2242C898.917 72.8742 900.687 71.6142 902.527 70.4942C904.367 69.3742 906.317 68.3642 908.307 67.5042C910.297 66.6442 912.367 65.9042 914.467 65.3242C916.567 64.7442 918.727 64.2942 920.897 63.9942C923.057 63.7042 925.267 63.5542 927.457 63.5542C929.647 63.5542 931.857 63.7042 934.017 63.9942C936.187 64.2942 938.347 64.7442 940.447 65.3242C942.547 65.9042 944.627 66.6442 946.617 67.5042C948.607 68.3642 950.547 69.3742 952.387 70.4942C954.227 71.6142 955.997 72.8742 957.657 74.2242C959.307 75.5842 960.877 77.0742 962.307 78.6342C963.737 80.2042 965.067 81.8842 966.247 83.6342C967.427 85.3742 968.497 87.2142 969.407 89.1042C970.307 90.9842 971.087 92.9542 971.697 94.9442C972.317 96.9342 972.787 98.9842 973.097 101.034C973.407 103.094 973.487 106.224 973.567 107.254ZM973.567 107.254C973.647 108.294 973.647 106.224 973.567 107.254Z" stroke="white" stroke-width="4" stroke-linecap="round"/>
<path d="M155.208 317.777H151.884L161.498 291.595H164.771L174.384 317.777H171.06L163.237 295.737H163.032L155.208 317.777ZM156.435 307.55H169.833V310.362H156.435V307.55Z" fill="white"/>
<path d="M376.43 145.285V119.103H385.583C387.407 119.103 388.912 119.418 390.096 120.049C391.281 120.671 392.163 121.511 392.743 122.568C393.322 123.616 393.612 124.779 393.612 126.058C393.612 127.183 393.412 128.112 393.011 128.844C392.619 129.577 392.099 130.157 391.451 130.583C390.812 131.009 390.118 131.325 389.368 131.529V131.785C390.169 131.836 390.974 132.117 391.784 132.629C392.593 133.14 393.271 133.873 393.816 134.827C394.362 135.782 394.635 136.95 394.635 138.33C394.635 139.643 394.336 140.823 393.74 141.871C393.143 142.92 392.201 143.751 390.914 144.364C389.627 144.978 387.953 145.285 385.89 145.285H376.43ZM379.6 142.472H385.89C387.961 142.472 389.431 142.072 390.301 141.271C391.179 140.461 391.618 139.481 391.618 138.33C391.618 137.444 391.392 136.626 390.94 135.876C390.488 135.117 389.845 134.512 389.01 134.06C388.174 133.6 387.186 133.37 386.044 133.37H379.6V142.472ZM379.6 130.609H385.481C386.436 130.609 387.296 130.421 388.064 130.046C388.839 129.671 389.453 129.143 389.904 128.461C390.365 127.779 390.595 126.978 390.595 126.058C390.595 124.907 390.194 123.931 389.393 123.13C388.592 122.32 387.322 121.916 385.583 121.916H379.6V130.609Z" fill="white"/>
<path d="M601.181 309.907H593.101V283.725H601.539C604.079 283.725 606.252 284.25 608.059 285.298C609.866 286.338 611.251 287.833 612.214 289.785C613.177 291.728 613.658 294.055 613.658 296.765C613.658 299.492 613.172 301.84 612.201 303.809C611.229 305.769 609.814 307.278 607.956 308.335C606.099 309.383 603.84 309.907 601.181 309.907ZM596.272 307.095H600.976C603.141 307.095 604.935 306.677 606.358 305.842C607.782 305.007 608.843 303.818 609.542 302.275C610.241 300.732 610.59 298.896 610.59 296.765C610.59 294.652 610.245 292.832 609.554 291.306C608.864 289.772 607.833 288.596 606.461 287.778C605.089 286.951 603.38 286.538 601.334 286.538H596.272V307.095Z" fill="white"/>
<path d="M673.945 46.7037H670.775C670.587 45.7918 670.259 44.9906 669.79 44.3003C669.33 43.6099 668.767 43.0304 668.103 42.5616C667.446 42.0844 666.718 41.7264 665.917 41.4878C665.115 41.2491 664.28 41.1298 663.411 41.1298C661.826 41.1298 660.39 41.5304 659.103 42.3315C657.824 43.1327 656.806 44.3131 656.047 45.8727C655.297 47.4324 654.922 49.3457 654.922 51.6128C654.922 53.8798 655.297 55.7932 656.047 57.3528C656.806 58.9125 657.824 60.0929 659.103 60.894C660.39 61.6952 661.826 62.0957 663.411 62.0957C664.28 62.0957 665.115 61.9764 665.917 61.7378C666.718 61.4991 667.446 61.1455 668.103 60.6767C668.767 60.1994 669.33 59.6156 669.79 58.9253C670.259 58.2264 670.587 57.4253 670.775 56.5219H673.945C673.706 57.8599 673.272 59.0574 672.641 60.1142C672.01 61.171 671.226 62.0702 670.289 62.8116C669.351 63.5446 668.299 64.1028 667.131 64.4864C665.972 64.8699 664.732 65.0616 663.411 65.0616C661.178 65.0616 659.192 64.5162 657.454 63.4253C655.715 62.3344 654.347 60.7832 653.35 58.7719C652.353 56.7605 651.854 54.3741 651.854 51.6128C651.854 48.8514 652.353 46.4651 653.35 44.4537C654.347 42.4423 655.715 40.8912 657.454 39.8003C659.192 38.7094 661.178 38.1639 663.411 38.1639C664.732 38.1639 665.972 38.3557 667.131 38.7392C668.299 39.1227 669.351 39.6852 670.289 40.4267C671.226 41.1597 672.01 42.0545 672.641 43.1114C673.272 44.1597 673.706 45.3571 673.945 46.7037Z" fill="white"/>
<path d="M919.87 118.258V92.076H935.672V94.8885H923.041V103.735H934.853V106.548H923.041V115.445H935.876V118.258H919.87Z" fill="white"/>
<path d="M211.303 271.39C222.773 260.94 259.493 227.9 280.113 208.71C300.733 189.52 325.863 164.98 335.013 156.23M211.303 271.39C222.773 260.94 259.493 227.9 280.113 208.71C300.733 189.52 325.863 164.98 335.013 156.23" stroke="white" stroke-width="4" stroke-linecap="round"/>
<path d="M321.833 183.19C326.233 174.19 330.623 165.2 335.013 156.23M321.833 183.19C326.413 173.82 330.993 164.46 335.013 156.23" stroke="white" stroke-width="4" stroke-linecap="round"/>
<path d="M307.593 168.41C316.743 164.35 325.893 160.29 335.013 156.23M307.593 168.41C317.123 164.18 326.643 159.95 335.013 156.23" stroke="white" stroke-width="4" stroke-linecap="round"/>
<path d="M443.073 132.098C454.543 128.168 482.693 117.668 511.903 108.528C541.103 99.3983 600.583 82.4983 618.323 77.2983M443.073 132.098C454.543 128.168 482.693 117.668 511.903 108.528C541.103 99.3983 600.583 82.4983 618.323 77.2983" stroke="white" stroke-width="4" stroke-linecap="round"/>
<path d="M594.093 94.9883C600.043 90.6383 606.003 86.2883 618.323 77.2983M594.093 94.9883C602.923 88.5383 611.753 82.0883 618.323 77.2983" stroke="white" stroke-width="4" stroke-linecap="round"/>
<path d="M588.383 75.2683C595.743 75.7683 603.103 76.2683 618.323 77.2983M588.383 75.2683C599.293 76.0083 610.203 76.7483 618.323 77.2983" stroke="white" stroke-width="4" stroke-linecap="round"/>
<path d="M418.431 177.763C428.981 183.623 457.351 199.913 481.741 212.923C506.121 225.933 550.911 248.693 564.751 255.843M418.431 177.763C428.981 183.623 457.351 199.913 481.741 212.923C506.121 225.933 550.911 248.693 564.751 255.843" stroke="white" stroke-width="4" stroke-linecap="round"/>
<path d="M534.981 252.103C541.611 252.943 548.251 253.773 564.751 255.843M534.981 252.103C544.101 253.253 553.231 254.403 564.751 255.843" stroke="white" stroke-width="4" stroke-linecap="round"/>
<path d="M544.351 233.843C548.891 238.753 553.441 243.653 564.751 255.843M544.351 233.843C550.601 240.593 556.851 247.333 564.751 255.843" stroke="white" stroke-width="4" stroke-linecap="round"/>
<path d="M669.839 325.452C677.479 328.382 693.099 332.742 715.659 343.062C738.209 353.372 790.269 379.952 805.189 387.332M669.839 325.452C677.479 328.382 693.099 332.742 715.659 343.062C738.209 353.372 790.269 379.952 805.189 387.332" stroke="white" stroke-width="4" stroke-linecap="round"/>
<path d="M775.389 383.852C783.619 384.812 791.839 385.772 805.189 387.332M775.389 383.852C782.029 384.632 788.669 385.402 805.189 387.332" stroke="white" stroke-width="4" stroke-linecap="round"/>
<path d="M784.589 365.512C790.279 371.542 795.969 377.562 805.189 387.332M784.589 365.512C789.179 370.372 793.769 375.232 805.189 387.332" stroke="white" stroke-width="4" stroke-linecap="round"/>
<path d="M833.065 483.113C841.795 496.583 870.835 566.363 885.435 563.913C900.035 561.473 914.785 484.363 920.655 468.453M833.065 483.113C841.795 496.583 870.835 566.363 885.435 563.913C900.035 561.473 914.785 484.363 920.655 468.453" stroke="white" stroke-width="4" stroke-linecap="round"/>
<path d="M923.105 498.353C922.415 489.863 921.715 481.373 920.655 468.453M923.105 498.353C922.605 492.193 922.095 486.043 920.655 468.453" stroke="white" stroke-width="4" stroke-linecap="round"/>
<path d="M903.315 492.933C908.235 485.983 913.155 479.033 920.655 468.453M903.315 492.933C906.885 487.893 910.455 482.853 920.655 468.453" stroke="white" stroke-width="4" stroke-linecap="round"/>
<path d="M717.019 46.4544C724.469 48.5644 735.449 51.4144 761.709 59.1144C787.969 66.8244 855.759 87.0844 874.569 92.6744M717.019 46.4544C724.469 48.5644 735.449 51.4144 761.709 59.1144C787.969 66.8244 855.759 87.0844 874.569 92.6744" stroke="white" stroke-width="4" stroke-linecap="round"/>
<path d="M844.619 94.4544C852.759 93.9744 860.909 93.4844 874.569 92.6744M844.619 94.4544C852.569 93.9844 860.509 93.5044 874.569 92.6744" stroke="white" stroke-width="4" stroke-linecap="round"/>
<path d="M850.479 74.7844C857.029 79.6544 863.579 84.5144 874.569 92.6744M850.479 74.7844C856.869 79.5344 863.259 84.2744 874.569 92.6744" stroke="white" stroke-width="4" stroke-linecap="round"/>
<path d="M522.233 91.5904C520.988 91.5904 519.859 91.3561 518.845 90.8873C517.831 90.41 517.025 89.724 516.429 88.8291C515.832 87.9257 515.534 86.8348 515.534 85.5564C515.534 84.4314 515.755 83.5194 516.198 82.8206C516.642 82.1132 517.234 81.5592 517.975 81.1586C518.717 80.7581 519.535 80.4598 520.43 80.2637C521.333 80.0592 522.241 79.8973 523.153 79.7779C524.346 79.6245 525.314 79.5095 526.055 79.4328C526.805 79.3475 527.35 79.2069 527.691 79.0109C528.041 78.8149 528.216 78.474 528.216 77.9882V77.8859C528.216 76.6245 527.87 75.6444 527.18 74.9456C526.498 74.2467 525.463 73.8973 524.073 73.8973C522.633 73.8973 521.504 74.2126 520.686 74.8433C519.868 75.474 519.292 76.1473 518.96 76.8632L516.096 75.8404C516.608 74.6473 517.289 73.7183 518.142 73.0535C519.002 72.3802 519.94 71.9115 520.954 71.6473C521.977 71.3745 522.983 71.2382 523.971 71.2382C524.602 71.2382 525.326 71.3149 526.145 71.4683C526.971 71.6132 527.768 71.9157 528.535 72.376C529.311 72.8362 529.954 73.5308 530.466 74.4598C530.977 75.3887 531.233 76.6331 531.233 78.1927V91.1302H528.216V88.4711H528.062C527.858 88.8973 527.517 89.3532 527.039 89.839C526.562 90.3248 525.927 90.7382 525.135 91.0791C524.342 91.42 523.375 91.5904 522.233 91.5904ZM522.693 88.8802C523.886 88.8802 524.892 88.6458 525.71 88.1771C526.537 87.7083 527.159 87.1032 527.576 86.3618C528.002 85.6203 528.216 84.8404 528.216 84.0223V81.2609C528.088 81.4143 527.806 81.5549 527.372 81.6828C526.946 81.8021 526.451 81.9086 525.889 82.0024C525.335 82.0876 524.794 82.1643 524.265 82.2325C523.745 82.2922 523.323 82.3433 523 82.3859C522.216 82.4882 521.483 82.6544 520.801 82.8845C520.127 83.1061 519.582 83.4427 519.164 83.8944C518.755 84.3376 518.551 84.9427 518.551 85.7098C518.551 86.7581 518.939 87.5507 519.714 88.0876C520.498 88.616 521.491 88.8802 522.693 88.8802Z" fill="white"/>
<path d="M10 307.173C26.83 306.733 94.13 304.963 110.95 304.523M10 307.173C26.83 306.733 94.13 304.963 110.95 304.523" stroke="white" stroke-width="4" stroke-linecap="round"/>
<path d="M83.04 315.523C93.22 311.513 103.4 307.503 110.95 304.523M83.04 315.523C93.26 311.493 103.49 307.463 110.95 304.523" stroke="white" stroke-width="4" stroke-linecap="round"/>
<path d="M82.5 295.013C92.88 298.483 103.25 301.953 110.95 304.523M82.5 295.013C92.92 298.493 103.34 301.983 110.95 304.523" stroke="white" stroke-width="4" stroke-linecap="round"/>
<path d="M912.444 419.135C912.444 421.215 912.284 423.305 911.974 425.355C911.664 427.415 911.194 429.465 910.574 431.455C909.964 433.445 909.184 435.405 908.284 437.295C907.374 439.175 906.304 441.025 905.124 442.765C903.944 444.515 902.614 446.195 901.184 447.755C899.754 449.325 898.184 450.815 896.534 452.165C894.874 453.525 893.104 454.785 891.264 455.905C889.424 457.025 887.484 458.035 885.494 458.895C883.504 459.755 881.424 460.485 879.324 461.075C877.224 461.655 875.064 462.105 872.894 462.395C870.734 462.695 868.524 462.845 866.334 462.845C864.144 462.845 861.934 462.695 859.774 462.395C857.604 462.105 855.444 461.655 853.344 461.075C851.244 460.485 849.174 459.755 847.184 458.895C845.194 458.035 843.244 457.025 841.404 455.905C839.564 454.785 837.794 453.525 836.134 452.165C834.484 450.815 832.924 449.325 831.484 447.755C830.054 446.195 828.724 444.515 827.544 442.765C826.364 441.025 825.304 439.175 824.394 437.295C823.484 435.405 822.704 433.445 822.094 431.455C821.474 429.465 821.004 427.415 820.694 425.355C820.384 423.305 820.224 421.215 820.224 419.135C820.224 417.065 820.384 414.975 820.694 412.915C821.004 410.865 821.474 408.815 822.094 406.825C822.704 404.835 823.484 402.865 824.394 400.985C825.304 399.095 826.364 397.255 827.544 395.515C828.724 393.765 830.054 392.085 831.484 390.515C832.924 388.955 834.484 387.465 836.134 386.105C837.794 384.755 839.564 383.495 841.404 382.375C843.244 381.255 845.194 380.245 847.184 379.385C849.174 378.525 851.244 377.785 853.344 377.205C855.444 376.625 857.604 376.175 859.774 375.875C861.934 375.585 864.144 375.435 866.334 375.435C868.524 375.435 870.734 375.585 872.894 375.875C875.064 376.175 877.224 376.625 879.324 377.205C881.424 377.785 883.504 378.525 885.494 379.385C887.484 380.245 889.424 381.255 891.264 382.375C893.104 383.495 894.874 384.755 896.534 386.105C898.184 387.465 899.754 388.955 901.184 390.515C902.614 392.085 903.944 393.765 905.124 395.515C906.304 397.255 907.374 399.095 908.284 400.985C909.184 402.865 909.964 404.835 910.574 406.825C911.194 408.815 911.664 410.865 911.974 412.915C912.284 414.975 912.364 418.105 912.444 419.135ZM912.444 419.135C912.524 420.175 912.524 418.105 912.444 419.135Z" stroke="white" stroke-width="4" stroke-linecap="round"/>
<path d="M858.941 430.139V403.957H874.64V406.769H862.112V415.616H873.464V418.429H862.112V430.139H858.941Z" fill="white"/>
<path d="M232.612 219.965C231.367 219.965 230.238 219.73 229.224 219.262C228.21 218.784 227.404 218.098 226.808 217.203C226.211 216.3 225.913 215.209 225.913 213.931C225.913 212.806 226.135 211.894 226.578 211.195C227.021 210.487 227.613 209.933 228.355 209.533C229.096 209.132 229.914 208.834 230.809 208.638C231.713 208.433 232.62 208.272 233.532 208.152C234.725 207.999 235.693 207.884 236.434 207.807C237.184 207.722 237.73 207.581 238.071 207.385C238.42 207.189 238.595 206.848 238.595 206.362V206.26C238.595 204.999 238.25 204.019 237.559 203.32C236.877 202.621 235.842 202.272 234.453 202.272C233.012 202.272 231.883 202.587 231.065 203.218C230.247 203.848 229.671 204.522 229.339 205.237L226.475 204.215C226.987 203.022 227.669 202.093 228.521 201.428C229.382 200.755 230.319 200.286 231.333 200.022C232.356 199.749 233.362 199.612 234.35 199.612C234.981 199.612 235.706 199.689 236.524 199.843C237.35 199.987 238.147 200.29 238.914 200.75C239.69 201.21 240.333 201.905 240.845 202.834C241.356 203.763 241.612 205.007 241.612 206.567V219.505H238.595V216.845H238.441C238.237 217.272 237.896 217.728 237.419 218.213C236.941 218.699 236.306 219.112 235.514 219.453C234.721 219.794 233.754 219.965 232.612 219.965ZM233.072 217.255C234.265 217.255 235.271 217.02 236.089 216.551C236.916 216.083 237.538 215.478 237.956 214.736C238.382 213.995 238.595 213.215 238.595 212.397V209.635C238.467 209.789 238.186 209.929 237.751 210.057C237.325 210.176 236.831 210.283 236.268 210.377C235.714 210.462 235.173 210.539 234.644 210.607C234.125 210.666 233.703 210.718 233.379 210.76C232.595 210.862 231.862 211.029 231.18 211.259C230.507 211.48 229.961 211.817 229.544 212.269C229.135 212.712 228.93 213.317 228.93 214.084C228.93 215.132 229.318 215.925 230.093 216.462C230.877 216.99 231.87 217.255 233.072 217.255Z" fill="white"/>
<path d="M461.878 245.54V219.358H464.895V229.023H465.151C465.372 228.682 465.679 228.248 466.071 227.719C466.472 227.182 467.043 226.705 467.784 226.287C468.534 225.861 469.548 225.648 470.827 225.648C472.48 225.648 473.937 226.061 475.199 226.888C476.46 227.715 477.445 228.887 478.152 230.404C478.859 231.921 479.213 233.711 479.213 235.773C479.213 237.853 478.859 239.655 478.152 241.181C477.445 242.698 476.464 243.874 475.212 244.709C473.959 245.536 472.514 245.949 470.878 245.949C469.616 245.949 468.607 245.74 467.848 245.323C467.089 244.897 466.506 244.415 466.097 243.878C465.687 243.333 465.372 242.881 465.151 242.523H464.793V245.54H461.878ZM464.844 235.722C464.844 237.205 465.061 238.513 465.496 239.647C465.93 240.772 466.565 241.654 467.401 242.293C468.236 242.924 469.259 243.239 470.469 243.239C471.73 243.239 472.783 242.907 473.626 242.242C474.479 241.569 475.118 240.665 475.544 239.532C475.979 238.39 476.196 237.12 476.196 235.722C476.196 234.341 475.983 233.097 475.557 231.989C475.139 230.873 474.504 229.99 473.652 229.343C472.808 228.686 471.747 228.358 470.469 228.358C469.241 228.358 468.21 228.669 467.375 229.292C466.54 229.905 465.909 230.766 465.483 231.874C465.057 232.973 464.844 234.256 464.844 235.722Z" fill="white"/>
<path d="M787.441 47.0139V20.832H790.458V30.4968H790.714C790.936 30.1559 791.242 29.7212 791.635 29.1928C792.035 28.6559 792.606 28.1786 793.348 27.761C794.098 27.3349 795.112 27.1218 796.39 27.1218C798.044 27.1218 799.501 27.5352 800.762 28.3619C802.024 29.1886 803.008 30.3604 803.715 31.8775C804.423 33.3945 804.777 35.1843 804.777 37.2468C804.777 39.3264 804.423 41.1289 803.715 42.6545C803.008 44.1715 802.028 45.3477 800.775 46.1829C799.522 47.0096 798.078 47.4229 796.441 47.4229C795.18 47.4229 794.17 47.2141 793.411 46.7965C792.653 46.3704 792.069 45.8889 791.66 45.3519C791.251 44.8065 790.936 44.3548 790.714 43.9968H790.356V47.0139H787.441ZM790.407 37.1957C790.407 38.6786 790.625 39.9869 791.059 41.1204C791.494 42.2454 792.129 43.1275 792.964 43.7667C793.799 44.3974 794.822 44.7127 796.032 44.7127C797.294 44.7127 798.346 44.3803 799.19 43.7156C800.042 43.0423 800.681 42.1389 801.108 41.0053C801.542 39.8633 801.76 38.5934 801.76 37.1957C801.76 35.815 801.546 34.5707 801.12 33.4627C800.703 32.3462 800.068 31.4641 799.215 30.8164C798.372 30.1602 797.311 29.832 796.032 29.832C794.805 29.832 793.774 30.1431 792.938 30.7653C792.103 31.3789 791.473 32.2397 791.046 33.3477C790.62 34.4471 790.407 35.7298 790.407 37.1957Z" fill="white"/>
<path d="M696.039 389.874C694.795 389.874 693.665 389.639 692.651 389.171C691.637 388.693 690.832 388.007 690.235 387.112C689.638 386.209 689.34 385.118 689.34 383.84C689.34 382.715 689.562 381.803 690.005 381.104C690.448 380.396 691.04 379.843 691.782 379.442C692.523 379.041 693.342 378.743 694.236 378.547C695.14 378.343 696.048 378.181 696.959 378.061C698.153 377.908 699.12 377.793 699.861 377.716C700.611 377.631 701.157 377.49 701.498 377.294C701.847 377.098 702.022 376.757 702.022 376.271V376.169C702.022 374.908 701.677 373.928 700.986 373.229C700.305 372.53 699.269 372.181 697.88 372.181C696.44 372.181 695.31 372.496 694.492 373.127C693.674 373.757 693.099 374.431 692.766 375.146L689.903 374.124C690.414 372.931 691.096 372.002 691.948 371.337C692.809 370.664 693.746 370.195 694.761 369.931C695.783 369.658 696.789 369.521 697.778 369.521C698.408 369.521 699.133 369.598 699.951 369.752C700.778 369.896 701.574 370.199 702.342 370.659C703.117 371.12 703.761 371.814 704.272 372.743C704.783 373.672 705.039 374.916 705.039 376.476V389.414H702.022V386.754H701.869C701.664 387.181 701.323 387.637 700.846 388.122C700.369 388.608 699.734 389.021 698.941 389.362C698.148 389.703 697.181 389.874 696.039 389.874ZM696.499 387.164C697.692 387.164 698.698 386.929 699.516 386.46C700.343 385.992 700.965 385.387 701.383 384.645C701.809 383.904 702.022 383.124 702.022 382.306V379.544C701.894 379.698 701.613 379.838 701.178 379.966C700.752 380.085 700.258 380.192 699.695 380.286C699.141 380.371 698.6 380.448 698.072 380.516C697.552 380.575 697.13 380.627 696.806 380.669C696.022 380.771 695.289 380.938 694.607 381.168C693.934 381.389 693.388 381.726 692.971 382.178C692.562 382.621 692.357 383.226 692.357 383.993C692.357 385.041 692.745 385.834 693.521 386.371C694.305 386.899 695.298 387.164 696.499 387.164Z" fill="white"/>
<path d="M875.43 606.036C874.186 606.036 873.056 605.802 872.042 605.333C871.028 604.856 870.223 604.17 869.626 603.275C869.029 602.371 868.731 601.28 868.731 600.002C868.731 598.877 868.953 597.965 869.396 597.266C869.839 596.559 870.431 596.005 871.173 595.604C871.914 595.204 872.733 594.905 873.627 594.709C874.531 594.505 875.439 594.343 876.35 594.224C877.544 594.07 878.511 593.955 879.252 593.878C880.002 593.793 880.548 593.653 880.889 593.457C881.238 593.261 881.413 592.92 881.413 592.434V592.332C881.413 591.07 881.068 590.09 880.377 589.391C879.696 588.692 878.66 588.343 877.271 588.343C875.831 588.343 874.701 588.658 873.883 589.289C873.065 589.92 872.49 590.593 872.157 591.309L869.294 590.286C869.805 589.093 870.487 588.164 871.339 587.499C872.2 586.826 873.137 586.357 874.152 586.093C875.174 585.82 876.18 585.684 877.169 585.684C877.799 585.684 878.524 585.761 879.342 585.914C880.169 586.059 880.966 586.361 881.733 586.822C882.508 587.282 883.152 587.976 883.663 588.905C884.174 589.834 884.43 591.079 884.43 592.638V605.576H881.413V602.917H881.26C881.055 603.343 880.714 603.799 880.237 604.285C879.76 604.771 879.125 605.184 878.332 605.525C877.539 605.866 876.572 606.036 875.43 606.036ZM875.89 603.326C877.083 603.326 878.089 603.092 878.907 602.623C879.734 602.154 880.356 601.549 880.774 600.807C881.2 600.066 881.413 599.286 881.413 598.468V595.707C881.285 595.86 881.004 596.001 880.569 596.128C880.143 596.248 879.649 596.354 879.086 596.448C878.532 596.533 877.991 596.61 877.463 596.678C876.943 596.738 876.521 596.789 876.197 596.832C875.413 596.934 874.68 597.1 873.998 597.33C873.325 597.552 872.779 597.888 872.362 598.34C871.953 598.783 871.748 599.388 871.748 600.155C871.748 601.204 872.136 601.996 872.912 602.533C873.696 603.062 874.689 603.326 875.89 603.326Z" fill="white"/>
<path d="M980.96 108.005C980.96 110.295 980.8 112.595 980.5 114.855C980.19 117.115 979.73 119.375 979.12 121.585C978.52 123.785 977.76 125.975 976.86 128.085C975.96 130.185 974.92 132.255 973.75 134.235C972.58 136.215 971.26 138.125 969.84 139.935C968.41 141.755 966.85 143.485 965.2 145.095C963.54 146.715 961.76 148.235 959.91 149.625C958.05 151.015 956.08 152.295 954.05 153.435C952.03 154.575 949.91 155.595 947.74 156.465C945.58 157.345 943.34 158.085 941.08 158.675C938.82 159.265 936.5 159.715 934.18 160.015C931.85 160.315 929.49 160.465 927.15 160.465C924.81 160.465 922.45 160.315 920.13 160.015C917.81 159.715 915.49 159.265 913.23 158.675C910.97 158.085 908.73 157.345 906.56 156.465C904.4 155.595 902.28 154.575 900.25 153.435C898.22 152.295 896.26 151.015 894.4 149.625C892.54 148.235 890.76 146.715 889.11 145.095C887.45 143.485 885.89 141.755 884.47 139.935C883.04 138.125 881.73 136.215 880.56 134.235C879.39 132.255 878.34 130.185 877.45 128.085C876.55 125.975 875.79 123.785 875.18 121.585C874.58 119.375 874.12 117.115 873.81 114.855C873.5 112.595 873.35 110.295 873.35 108.005C873.35 105.725 873.5 103.425 873.81 101.165C874.12 98.8946 874.58 96.6346 875.18 94.4346C875.79 92.2246 876.55 90.0446 877.45 87.9346C878.34 85.8246 879.39 83.7546 880.56 81.7846C881.73 79.8046 883.04 77.8846 884.47 76.0746C885.89 74.2646 887.45 72.5346 889.11 70.9146C890.76 69.3046 892.54 67.7846 894.4 66.3946C896.26 65.0046 898.22 63.7246 900.25 62.5846C902.28 61.4446 904.4 60.4246 906.56 59.5446C908.73 58.6746 910.97 57.9346 913.23 57.3446C915.49 56.7546 917.81 56.3046 920.13 56.0046C922.45 55.7046 924.81 55.5546 927.15 55.5546C929.49 55.5546 931.85 55.7046 934.18 56.0046C936.5 56.3046 938.82 56.7546 941.08 57.3446C943.34 57.9346 945.58 58.6746 947.74 59.5446C949.91 60.4246 952.03 61.4446 954.05 62.5846C956.08 63.7246 958.05 65.0046 959.91 66.3946C961.76 67.7846 963.54 69.3046 965.2 70.9146C966.85 72.5346 968.41 74.2646 969.84 76.0746C971.26 77.8846 972.58 79.8046 973.75 81.7846C974.92 83.7546 975.96 85.8246 976.86 87.9346C977.76 90.0446 978.52 92.2246 979.12 94.4346C979.73 96.6346 980.19 98.8946 980.5 101.165C980.8 103.425 980.88 106.865 980.96 108.005ZM980.96 108.005C981.03 109.145 981.03 106.865 980.96 108.005Z" stroke="white" stroke-width="4" stroke-linecap="round"/>
<path d="M656.776 300.032C656.776 302.322 656.616 304.622 656.316 306.882C656.006 309.142 655.546 311.402 654.936 313.612C654.336 315.812 653.576 318.002 652.676 320.112C651.776 322.212 650.736 324.282 649.566 326.262C648.396 328.242 647.076 330.152 645.656 331.962C644.226 333.782 642.666 335.512 641.016 337.122C639.356 338.742 637.576 340.262 635.726 341.652C633.866 343.042 631.896 344.322 629.866 345.462C627.846 346.602 625.726 347.622 623.556 348.492C621.396 349.372 619.156 350.112 616.896 350.702C614.636 351.292 612.316 351.742 609.996 352.042C607.666 352.342 605.306 352.492 602.966 352.492C600.626 352.492 598.266 352.342 595.946 352.042C593.626 351.742 591.306 351.292 589.046 350.702C586.786 350.112 584.546 349.372 582.376 348.492C580.216 347.622 578.096 346.602 576.066 345.462C574.036 344.322 572.076 343.042 570.216 341.652C568.356 340.262 566.576 338.742 564.926 337.122C563.266 335.512 561.706 333.782 560.286 331.962C558.856 330.152 557.546 328.242 556.376 326.262C555.206 324.282 554.156 322.212 553.266 320.112C552.366 318.002 551.606 315.812 550.996 313.612C550.396 311.402 549.936 309.142 549.626 306.882C549.316 304.622 549.166 302.322 549.166 300.032C549.166 297.752 549.316 295.452 549.626 293.192C549.936 290.922 550.396 288.662 550.996 286.462C551.606 284.252 552.366 282.072 553.266 279.962C554.156 277.852 555.206 275.782 556.376 273.812C557.546 271.832 558.856 269.912 560.286 268.102C561.706 266.292 563.266 264.562 564.926 262.942C566.576 261.332 568.356 259.812 570.216 258.422C572.076 257.032 574.036 255.752 576.066 254.612C578.096 253.472 580.216 252.452 582.376 251.572C584.546 250.702 586.786 249.962 589.046 249.372C591.306 248.782 593.626 248.332 595.946 248.032C598.266 247.732 600.626 247.582 602.966 247.582C605.306 247.582 607.666 247.732 609.996 248.032C612.316 248.332 614.636 248.782 616.896 249.372C619.156 249.962 621.396 250.702 623.556 251.572C625.726 252.452 627.846 253.472 629.866 254.612C631.896 255.752 633.866 257.032 635.726 258.422C637.576 259.812 639.356 261.332 641.016 262.942C642.666 264.562 644.226 266.292 645.656 268.102C647.076 269.912 648.396 271.832 649.566 273.812C650.736 275.782 651.776 277.852 652.676 279.962C653.576 282.072 654.336 284.252 654.936 286.462C655.546 288.662 656.006 290.922 656.316 293.192C656.616 295.452 656.696 298.892 656.776 300.032ZM656.776 300.032C656.846 301.172 656.846 298.892 656.776 300.032Z" stroke="white" stroke-width="4" stroke-linecap="round"/>
<path d="M919.961 419.666C919.961 421.956 919.801 424.256 919.501 426.516C919.191 428.776 918.731 431.036 918.121 433.246C917.521 435.446 916.761 437.636 915.861 439.746C914.961 441.846 913.921 443.916 912.751 445.896C911.581 447.876 910.261 449.786 908.841 451.596C907.411 453.416 905.851 455.146 904.201 456.756C902.541 458.376 900.761 459.896 898.911 461.286C897.051 462.676 895.081 463.956 893.051 465.096C891.031 466.236 888.911 467.256 886.741 468.126C884.581 469.006 882.341 469.746 880.081 470.336C877.821 470.926 875.501 471.376 873.181 471.676C870.851 471.976 868.491 472.126 866.151 472.126C863.811 472.126 861.451 471.976 859.131 471.676C856.811 471.376 854.491 470.926 852.231 470.336C849.971 469.746 847.731 469.006 845.561 468.126C843.401 467.256 841.281 466.236 839.251 465.096C837.221 463.956 835.261 462.676 833.401 461.286C831.541 459.896 829.761 458.376 828.111 456.756C826.451 455.146 824.891 453.416 823.471 451.596C822.041 449.786 820.731 447.876 819.561 445.896C818.391 443.916 817.341 441.846 816.451 439.746C815.551 437.636 814.791 435.446 814.181 433.246C813.581 431.036 813.121 428.776 812.811 426.516C812.501 424.256 812.351 421.956 812.351 419.666C812.351 417.386 812.501 415.086 812.811 412.826C813.121 410.556 813.581 408.296 814.181 406.096C814.791 403.886 815.551 401.706 816.451 399.596C817.341 397.486 818.391 395.416 819.561 393.446C820.731 391.466 822.041 389.546 823.471 387.736C824.891 385.926 826.451 384.196 828.111 382.576C829.761 380.966 831.541 379.446 833.401 378.056C835.261 376.666 837.221 375.386 839.251 374.246C841.281 373.106 843.401 372.086 845.561 371.206C847.731 370.336 849.971 369.596 852.231 369.006C854.491 368.416 856.811 367.966 859.131 367.666C861.451 367.366 863.811 367.216 866.151 367.216C868.491 367.216 870.851 367.366 873.181 367.666C875.501 367.966 877.821 368.416 880.081 369.006C882.341 369.596 884.581 370.336 886.741 371.206C888.911 372.086 891.031 373.106 893.051 374.246C895.081 375.386 897.051 376.666 898.911 378.056C900.761 379.446 902.541 380.966 904.201 382.576C905.851 384.196 907.411 385.926 908.841 387.736C910.261 389.546 911.581 391.466 912.751 393.446C913.921 395.416 914.961 397.486 915.861 399.596C916.761 401.706 917.521 403.886 918.121 406.096C918.731 408.296 919.191 410.556 919.501 412.826C919.801 415.086 919.881 418.526 919.961 419.666ZM919.961 419.666C920.031 420.806 920.031 418.526 919.961 419.666Z" stroke="white" stroke-width="4" stroke-linecap="round"/>
</svg>
